<svg width="79" height="75" viewBox="0 0 79 75" fill="none" xmlns="http://www.w3.org/2000/svg">
<path d="M75.3348 23.3809C70.0839 2.98811 43.0837 -3.09202 24.2892 6.32675C15.8841 10.539 11.5508 14.9941 7.27401 23.3809C0.950805 35.7808 -0.432863 47.4529 7.27401 59.0397C18.8343 76.4199 49.3063 77.1053 65.2805 63.6897C76.8027 54.0131 79.0912 37.9697 75.3348 23.3809Z" fill="#212529" stroke="#212529" stroke-width="3.10076"/>
<path d="M54.9823 22.9823C51.4466 26.5181 47.9109 30.0538 44.3752 33.5895C41.9917 35.973 39.765 38.4621 36.9738 40.3477C33.9086 42.4184 31.3773 45.2515 28.7777 47.8511C27.1252 49.5037 25.9796 51.5398 24.3541 53.1653" stroke="white" stroke-width="3.10076" stroke-linecap="round"/>
<path d="M28 23.0004C28.2961 24.0129 29.6297 24.8205 30.29 25.5663C31.5163 26.9514 32.4369 28.6717 33.4919 30.1977C34.7145 31.9662 36.6434 33.2002 37.7375 35.0453C38.3769 36.1236 38.9473 37.3318 39.3999 38.5135C39.766 39.4692 39.8154 40.608 40.6391 41.2825C43.3394 43.4939 46.332 45.2798 48.8589 47.7217C50.4809 49.2891 52.051 50.9137 53.646 52.5088" stroke="white" stroke-width="3.10076" stroke-linecap="round"/>
</svg>
