<svg width="36" height="34" viewBox="0 0 36 34" fill="none" xmlns="http://www.w3.org/2000/svg">
<path d="M0.831042 31.5262C-0.946828 28.789 0.46172 15.1791 1.94328 8.71633L2.85257 2.1907C2.96759 1.36528 3.69134 0.765239 4.52469 0.774529C12.7874 0.866643 28.0387 -0.984131 33.0573 0.732888C38.257 2.51187 35.4246 23.224 33.22 33.0689C33.1216 33.5084 32.7439 33.819 32.2938 33.8346C22.0563 34.1894 2.56513 34.1959 0.831042 31.5262Z" fill="#E95929"/>
<path d="M11.2383 11.0312C12.8911 12.6998 14.4426 14.463 16.0924 16.1336C16.7653 16.815 17.4551 17.4312 18.0644 18.1745C19.8388 20.3393 21.9954 22.0365 23.9597 24.0008" stroke="white" stroke-width="2" stroke-linecap="round"/>
<path d="M11.2383 24.0312C11.7151 23.5809 12.2351 23.1749 12.7552 22.7764C14.0103 21.8146 15.1663 20.8265 16.2993 19.7218C17.556 18.4965 18.9368 17.436 20.2294 16.2536C21.4061 15.1774 22.882 14.399 23.8976 13.1646C24.3118 12.6612 24.645 12.1947 24.9525 11.6822" stroke="white" stroke-width="2" stroke-linecap="round"/>
</svg>
