<svg width="37" height="34" viewBox="0 0 37 34" fill="none" xmlns="http://www.w3.org/2000/svg">
<path d="M0.854127 31.5262C-0.973128 28.789 0.474545 15.1791 1.99726 8.71633L2.93299 2.18246C3.05069 1.3606 3.77077 0.764193 4.60096 0.77397C13.0817 0.873848 28.8075 -0.987467 33.9755 0.732888C39.3206 2.51218 36.4076 23.2312 34.1416 33.074C34.041 33.5111 33.6647 33.8186 33.2165 33.8338C22.7015 34.1893 2.63783 34.1981 0.854127 31.5262Z" fill="#E95929"/>
<path d="M9 10C11.3486 10.0111 13.6924 10.1608 16.0403 10.1755C16.9979 10.1815 17.9214 10.1295 18.8778 10.2243C21.6633 10.5003 24.3883 10.1755 27.1663 10.1755" stroke="white" stroke-width="2" stroke-linecap="round"/>
<path d="M9 16.3359C9.65561 16.3547 10.3104 16.4352 10.96 16.5212C12.5275 16.7287 14.0436 16.8473 15.6259 16.8674C17.381 16.8896 19.1072 17.116 20.8573 17.194C22.4504 17.2651 24.0444 17.7583 25.6353 17.6036C26.2842 17.5405 26.8497 17.4463 27.4295 17.3013" stroke="white" stroke-width="2" stroke-linecap="round"/>
<path d="M9 23.6328C10.2956 23.6328 11.5833 23.6783 12.8761 23.7742C14.1127 23.866 15.4727 24.1726 16.718 24.0619C17.087 24.0291 17.4396 23.9266 17.8052 23.8766C19.1402 23.6939 20.5072 23.772 21.847 23.823C23.1527 23.8726 24.4553 23.9839 25.7621 23.9839C26.6156 23.9839 27.4535 24.0716 28.3071 24.0716" stroke="white" stroke-width="2" stroke-linecap="round"/>
</svg>
