<svg width="8" height="16" viewBox="0 0 8 16" fill="none" xmlns="http://www.w3.org/2000/svg">
<path d="M0.5 4.09586C0.5 3.33204 0.698646 2.87996 1.25039 2.32537C1.97534 1.59666 2.64235 1.31378 3.6781 1.09719C4.62769 0.898612 5.45652 0.995128 6.2559 1.47202C6.92215 1.86949 7.37845 2.44209 7.47418 3.16276C7.72147 5.02443 6.14186 6.54663 4.91403 7.84419C4.36921 8.41996 3.82953 8.96692 3.4574 9.65456C3.2685 10.0036 3.05666 10.4479 2.97186 10.8309C2.95799 10.8935 2.96303 11.1224 2.96303 10.9146" stroke="white" stroke-linecap="round"/>
<path d="M3.5278 13.7324C3.33046 13.8875 2.68653 14.5031 2.82105 14.8058C2.87716 14.932 3.13079 15.0747 3.24952 14.956C3.41247 14.793 3.88093 14.1869 3.36878 14.13C3.24374 14.1161 3.15197 14.0159 3.01541 14.0549C2.91307 14.0841 2.95937 14.4952 3.01541 14.5673C3.38003 15.0361 3.4086 14.0105 3.28927 14.3685" stroke="white" stroke-linecap="round"/>
</svg>
