<svg width="433" height="89" viewBox="0 0 433 89" fill="none" xmlns="http://www.w3.org/2000/svg">
<path d="M122.324 74.0282C156.698 74.0282 191.071 74.0282 225.444 74.0282C265.113 74.0282 303.508 76.7906 342.942 79.9376C356.685 81.0343 370.488 81.6671 384.28 81.6671C391.282 81.6671 398.197 82.0996 403.975 77.8476C410.636 72.9459 417.454 68.0615 423.671 62.6418C431.823 55.5348 433.265 47.6047 424.42 39.2924C398.769 15.1894 356.264 16.7551 323.172 15.9431C302.4 15.4335 281.683 16.0679 261.016 13.637C240.568 11.232 220.659 7.24294 200.057 5.85392C153.336 2.70379 104.768 -0.420422 57.9963 4.77293C32.2164 7.63547 3.2642 23.3854 2.43002 50.6788C1.81792 70.7062 15.3983 87 36.8781 87C52.8693 87 68.7879 83.1084 84.5813 83.1084" stroke="#E95929" stroke-width="4" stroke-linecap="round"/>
</svg>
