<svg width="105" height="96" viewBox="0 0 105 96" fill="none" xmlns="http://www.w3.org/2000/svg">
<path d="M3 34.5039C3 35.7687 3.37162 36.9568 3.67644 38.1761C4.04548 39.6523 4.0486 41.1478 4.25624 42.6429C4.65648 45.5247 4.54614 48.6458 4.54614 51.5549C4.54614 56.3212 4.1596 61.0681 4.1596 65.8142" stroke="white" stroke-width="4.69881" stroke-linecap="round"/>
<path d="M4.16016 65.617C7.56946 65.617 10.9949 66.3927 14.4141 66.5727C18.0383 66.7634 21.6911 66.568 25.3122 66.7874C26.3344 66.8494 26.7839 67.0861 27.6207 67.4746C28.9556 68.0944 30.0803 68.777 31.2391 69.6973C33.4051 71.4174 35.6397 72.9386 37.9605 74.4432C43.8663 78.2721 49.905 81.8289 55.7304 85.7819C58.499 87.6607 61.2617 89.55 64.0301 91.4298C64.1699 91.5247 66.4213 93.2186 66.5426 92.976C66.8602 92.3407 66.6394 90.7371 66.4889 90.0446C66.0051 87.8191 66.3923 85.1541 66.3923 82.8828C66.3923 78.5796 66.4859 74.2653 66.2956 69.9657C66.0854 65.215 66.3103 60.4386 65.8876 55.6957C65.696 53.545 65.2855 51.4534 65.2434 49.2854C65.1957 46.8292 65.1915 44.3854 65.0824 41.9303C64.9289 38.4768 64.9637 34.9611 65.0501 31.5043C65.1162 28.8633 65.0501 26.1671 65.0501 21.7031" stroke="white" stroke-width="4.69881" stroke-linecap="round"/>
<path d="M3.19531 34.3104C5.64528 34.3104 8.04814 35.0529 10.4965 35.0835C13.1855 35.1171 15.8536 35.47 18.5493 35.47C20.2189 35.47 22.0324 35.6949 23.6817 35.4593C25.0326 35.2663 26.8352 33.8938 27.9013 33.1507C30.1716 31.5684 32.5266 30.0646 34.6335 28.2759C39.4559 24.182 44.7187 20.6282 49.4507 16.4218C52.8709 13.3816 56.6101 10.6943 60.0052 7.63865C60.7878 6.93427 61.6333 6.24946 62.5392 5.70591C63.2899 5.25547 63.9574 4.51243 64.751 4.15973C65.2343 3.94492 65.7117 3.43777 66.2005 3.19336" stroke="white" stroke-width="4.69881" stroke-linecap="round"/>
<path d="M66.0053 3C66.0053 4.22384 66.0191 5.44846 66.0053 6.67219C65.9885 8.1733 66.0226 10.0186 65.7154 11.4933C65.235 13.7996 65.6915 16.3424 65.3826 18.6981C64.9737 21.816 65.039 31.2701 65.039 28.1255" stroke="white" stroke-width="4.69881" stroke-linecap="round"/>
<path d="M73.5781 33.9846C74.0721 33.8529 74.5321 33.5235 74.949 33.2436C76.6241 32.1187 78.2476 30.8613 79.7933 29.5662C82.8605 26.9963 85.3583 23.865 88.0462 20.924C91.0425 17.6457 94.3971 14.5881 98.5869 12.9766" stroke="white" stroke-width="4.69881" stroke-linecap="round"/>
<path d="M75.7422 48.6513C80.8761 48.6513 85.9781 48.5142 91.0809 49.1423C94.7204 49.5902 98.347 49.7593 101.918 50.6521" stroke="white" stroke-width="4.69881" stroke-linecap="round"/>
<path d="M76.9102 67.6582C81.2692 69.4204 84.8376 72.8603 88.6365 75.5501C92.3395 78.172 96.1097 80.7812 100.252 82.6639" stroke="white" stroke-width="4.69881" stroke-linecap="round"/>
</svg>
