<svg width="28" height="19" viewBox="0 0 28 19" fill="none" xmlns="http://www.w3.org/2000/svg">
<path d="M1.57052 8.83417C2.17383 9.13582 3.16111 8.91432 3.8094 8.95034C5.01349 9.01723 6.23113 9.35396 7.42119 9.5523C8.80029 9.78215 10.2586 9.48955 11.6138 9.80576C12.4059 9.99057 13.2259 10.2592 13.9794 10.5661C14.5889 10.8144 15.1368 11.2731 15.8276 11.2103C18.0922 11.0045 20.2955 10.4963 22.5865 10.4605C24.057 10.4375 25.53 10.4605 27.0009 10.4605" stroke="#E7E7E7" stroke-width="2" stroke-linecap="round"/>
<path d="M1 8.77492C1.3191 8.77492 1.58704 8.55685 1.84336 8.38926C2.444 7.99653 3.01821 7.58268 3.58516 7.1433C4.65902 6.31106 5.69757 5.38727 6.79754 4.59628C7.74089 3.91791 8.69888 3.45477 9.76836 3.01551C10.1936 2.84088 10.677 2.70058 11.0525 2.42644C11.3195 2.23149 11.4637 1.90297 11.756 1.75684" stroke="#E7E7E7" stroke-width="2" stroke-linecap="round"/>
<path d="M1 9.09375C1.45858 10.0109 2.49024 10.7274 3.09479 11.3511C3.75061 12.0277 4.37686 12.723 5.14597 13.2794C5.77342 13.7333 6.42217 14.1103 7.0022 14.6313C7.45164 15.035 7.89957 15.439 8.36683 15.8222C8.72584 16.1166 9.05996 16.4292 9.40937 16.7333C9.58878 16.8895 9.75603 17.1681 9.97726 17.2419" stroke="#E7E7E7" stroke-width="2" stroke-linecap="round"/>
</svg>
