<svg width="184" height="52" viewBox="0 0 184 52" fill="none" xmlns="http://www.w3.org/2000/svg">
<path d="M87.2208 1.14132H87.2398L87.2588 1.13986C113.688 -0.877897 137.822 2.07026 155.332 7.26844C164.089 9.86834 171.167 13.0242 176.043 16.3858C180.948 19.7672 183.5 23.2659 183.5 26.5229C183.5 29.7593 181.196 32.5506 176.665 35.0345C172.148 37.5109 165.558 39.5993 157.305 41.4723C142.529 44.8257 122.565 47.4602 99.9519 50.4441C97.3247 50.7908 94.6617 51.1422 91.967 51.5C66.6068 51.4975 43.6665 48.6494 27.0796 44.0561C18.779 41.7574 12.098 39.0294 7.5037 36.0214C2.88874 32.9999 0.5 29.7794 0.5 26.5229C0.5 23.2384 2.6254 19.9923 6.77878 16.946C10.9229 13.9065 17.0029 11.1313 24.7024 8.78386C40.0954 4.09088 61.8484 1.14132 87.2208 1.14132Z" stroke="white"/>
</svg>
